<svg xmlns="http://www.w3.org/2000/svg" viewBox="0 0 839.86 274.21"><defs><style>.cls-1{fill:#067ec1;}.cls-2{fill:#fff;}</style></defs><title>logo_blue_bg</title><g id="Layer_2" data-name="Layer 2"><g id="Layer_2-2" data-name="Layer 2"><rect class="cls-1" width="839.86" height="274.21"/><rect class="cls-1" x="103.48" y="43.26" width="15.91" height="15.91"/><rect class="cls-1" x="123.64" y="43.26" width="15.91" height="15.91"/><rect class="cls-1" x="63.17" y="43.26" width="15.91" height="15.91"/><rect class="cls-1" x="83.33" y="43.26" width="15.91" height="15.91"/><path class="cls-1" d="M107.76,135.09a82.42,82.42,0,0,1,32.59,10.77l-11.79-37.68Z"/><path class="cls-2" d="M355.68,135.68c0,19.2-12.07,32.36-30.43,32.36-10.26,0-18-4.1-22.7-11.59V191H288.67V103.32h13.89v11.11c4.71-7.49,12.44-11.59,22.46-11.59C343.24,102.84,355.68,116.12,355.68,135.68Zm-14-.48c0-12-8.09-20.77-19.56-20.77s-19.56,8.69-19.56,20.77c0,12.44,8.09,21,19.56,21S341.67,147.51,341.67,135.19Z"/><path class="cls-2" d="M432.35,127.59v40H418.47v-36.1c0-9.66-5.8-15.58-15.46-15.58-11.47.12-18.35,8.69-18.35,20v31.64H370.77V78h13.89v37.91c4.59-9.06,12.8-13,23.79-13C423.42,102.84,432.35,112.25,432.35,127.59Z"/><path class="cls-2" d="M518.56,135.68c0,19.2-12.07,32.36-30.43,32.36-10.26,0-18-4.1-22.7-11.59V191H451.55V103.32h13.89v11.11c4.71-7.49,12.44-11.59,22.46-11.59C506.13,102.84,518.56,116.12,518.56,135.68Zm-14-.48c0-12-8.09-20.77-19.56-20.77s-19.56,8.69-19.56,20.77c0,12.44,8.09,21,19.56,21S504.56,147.51,504.56,135.19Z"/><path class="cls-2" d="M556,167.55,522.79,83h20.53l23.06,63.75L589.56,83h19.68l-33.57,84.52Z"/><path class="cls-2" d="M693.16,167.55v-57L670.7,159H658.26L635.8,110.56v57H618.54V83h21.37l24.63,51.68L689.05,83H710.3v84.52Z"/><path class="cls-2" d="M792,91.36l-7.37,15.82c-8.93-5.31-19.56-8.69-26.32-8.69-6.4,0-10.75,2.29-10.75,6.88,0,15.58,45,6.88,44.92,37.31,0,16.54-14.37,25.48-33.08,25.48a59.35,59.35,0,0,1-37.31-13.4l7.61-15.58c8.69,7.73,21,12.68,29.94,12.68,7.85,0,12.56-2.9,12.56-8.09,0-15.94-45-6.64-45-36.59,0-15.33,13.16-25,32.72-25C771.76,82.19,783.6,85.81,792,91.36Z"/><polygon class="cls-2" points="186.37 73.83 186.37 62.58 152.29 62.58 98.93 131.61 44.71 61.45 6.27 61.45 6.27 72.71 39.18 72.71 60.13 99.81 22.65 219.61 33.4 222.97 68.52 110.67 98.93 150.01 128.61 111.62 163.43 222.97 174.18 219.61 137 100.76 157.81 73.83 186.37 73.83"/><path class="cls-2" d="M151.66,27.41H124.3a16.58,16.58,0,0,0-16.58-16.58H92.8A16.58,16.58,0,0,0,76.22,27.41H48.86l-9.95,9.95H44.6L61.49,73.83H139l16.88-36.48h5.68ZM77.05,60.57H60.47V44H77.05Zm21,0H81.47V44H98.05Zm21,0H102.47V44h16.58Zm21,0H123.48V44h16.58Z"/><path class="cls-2" d="M96.64,263.44c-19.14,0-39-7.13-53.06-19.08l-2.41-2,14-28.71,4,3.56c10.67,9.48,26.2,16.11,37.77,16.11,4.82,0,12.9-.89,12.9-6.87,0-5.59-7.7-8.14-20.38-11.68C72.4,210,49,203.44,49,177h8.14c0,20.31,17.56,25.2,34.54,29.94C104.62,210.5,118,214.23,118,226.4c0,9.4-7.87,15-21,15-12.14,0-27.28-5.82-39.08-14.79l-6.6,13.51A76.4,76.4,0,0,0,96.64,255.3ZM145.42,225l-8.14,0c.08-20.91-17.69-26.08-34.87-31.07C89.13,190,76.57,186.34,76.57,174.5c0-9.86,9.61-13.37,18.59-13.37s22.19,4,33.74,10.12l6.57-14.12a79.1,79.1,0,0,0-38.19-9.9V139.1c16.13,0,33.19,4.89,45.65,13.07l2.94,1.93-13.34,28.65-3.87-2.3c-11.07-6.58-24.85-11.18-33.5-11.18-3.14,0-10.46.51-10.46,5.23,0,5.34,7.55,7.92,20,11.53C121.92,191,145.53,197.9,145.42,225Z"/><circle class="cls-2" cx="98.59" cy="142.88" r="7.69" transform="translate(-72.16 111.56) rotate(-45)"/><circle class="cls-2" cx="94.07" cy="259.54" r="7.69" transform="translate(-155.97 142.53) rotate(-45)"/><circle class="cls-2" cx="141.09" cy="224.27" r="7.69" transform="translate(-117.26 165.46) rotate(-45)"/><circle class="cls-2" cx="53.38" cy="177.25" r="7.69" transform="translate(-109.7 89.66) rotate(-45)"/><circle class="cls-2" cx="184.98" cy="68.72" r="7.44" transform="translate(41.12 203.79) rotate(-63.57)"/><circle class="cls-2" cx="8.47" cy="67.28" r="7.44" transform="translate(-55.55 44.92) rotate(-63.57)"/><circle class="cls-2" cx="27.84" cy="220.84" r="7.44" transform="translate(-182.31 147.48) rotate(-63.57)"/><circle class="cls-2" cx="167.76" cy="219.4" r="7.44" transform="translate(-103.38 271.99) rotate(-63.57)"/></g></g></svg>